<svg xmlns="http://www.w3.org/2000/svg" xmlns:xlink="http://www.w3.org/1999/xlink" width="100" zoomAndPan="magnify" viewBox="0 0 75 30.000001" height="40" preserveAspectRatio="xMidYMid meet" version="1.0"><defs><g/><clipPath id="a18ce99967"><path d="M 12.402344 7.808594 L 62.484375 7.808594 L 62.484375 20.871094 L 12.402344 20.871094 Z M 12.402344 7.808594 " clip-rule="nonzero"/></clipPath><clipPath id="179f446812"><path d="M 49.183594 5.980469 L 65.875 5.980469 L 65.875 22.671875 L 49.183594 22.671875 Z M 49.183594 5.980469 " clip-rule="nonzero"/></clipPath></defs><g clip-path="url(#a18ce99967)"><path fill="#ffd700" d="M 19 7.839844 L 55.996094 7.839844 C 56.429688 7.839844 56.859375 7.882812 57.285156 7.964844 C 57.710938 8.050781 58.121094 8.175781 58.523438 8.34375 C 58.921875 8.507812 59.304688 8.710938 59.664062 8.953125 C 60.023438 9.191406 60.355469 9.464844 60.664062 9.773438 C 60.96875 10.078125 61.242188 10.414062 61.484375 10.773438 C 61.726562 11.132812 61.929688 11.511719 62.09375 11.914062 C 62.261719 12.3125 62.386719 12.726562 62.46875 13.152344 C 62.554688 13.578125 62.597656 14.003906 62.597656 14.4375 L 62.597656 14.570312 C 62.597656 15.003906 62.554688 15.433594 62.46875 15.859375 C 62.386719 16.285156 62.261719 16.695312 62.09375 17.097656 C 61.929688 17.496094 61.726562 17.878906 61.484375 18.238281 C 61.242188 18.597656 60.96875 18.933594 60.664062 19.238281 C 60.355469 19.542969 60.023438 19.816406 59.664062 20.058594 C 59.304688 20.300781 58.921875 20.503906 58.523438 20.667969 C 58.121094 20.835938 57.710938 20.960938 57.285156 21.042969 C 56.859375 21.128906 56.429688 21.171875 55.996094 21.171875 L 19 21.171875 C 18.566406 21.171875 18.140625 21.128906 17.714844 21.042969 C 17.289062 20.960938 16.875 20.835938 16.476562 20.667969 C 16.074219 20.503906 15.695312 20.300781 15.335938 20.058594 C 14.976562 19.816406 14.640625 19.542969 14.335938 19.238281 C 14.027344 18.933594 13.753906 18.597656 13.515625 18.238281 C 13.273438 17.878906 13.070312 17.496094 12.90625 17.097656 C 12.738281 16.695312 12.613281 16.285156 12.53125 15.859375 C 12.445312 15.433594 12.402344 15.003906 12.402344 14.570312 L 12.402344 14.4375 C 12.402344 14.003906 12.445312 13.578125 12.53125 13.152344 C 12.613281 12.726562 12.738281 12.3125 12.90625 11.914062 C 13.070312 11.511719 13.273438 11.132812 13.515625 10.773438 C 13.753906 10.414062 14.027344 10.078125 14.335938 9.773438 C 14.640625 9.464844 14.976562 9.191406 15.335938 8.953125 C 15.695312 8.710938 16.074219 8.507812 16.476562 8.34375 C 16.875 8.175781 17.289062 8.050781 17.714844 7.964844 C 18.140625 7.882812 18.566406 7.839844 19 7.839844 Z M 19 7.839844 " fill-opacity="1" fill-rule="nonzero"/></g><g clip-path="url(#179f446812)"><path fill="#ffffff" d="M 65.933594 14.355469 C 65.933594 14.902344 65.878906 15.449219 65.769531 15.988281 C 65.664062 16.527344 65.503906 17.050781 65.292969 17.558594 C 65.085938 18.066406 64.824219 18.550781 64.519531 19.007812 C 64.214844 19.464844 63.867188 19.886719 63.480469 20.277344 C 63.089844 20.664062 62.667969 21.011719 62.210938 21.316406 C 61.753906 21.621094 61.269531 21.878906 60.761719 22.089844 C 60.253906 22.300781 59.730469 22.460938 59.191406 22.566406 C 58.652344 22.675781 58.105469 22.730469 57.558594 22.730469 C 57.007812 22.730469 56.460938 22.675781 55.921875 22.566406 C 55.382812 22.460938 54.859375 22.300781 54.351562 22.089844 C 53.84375 21.878906 53.359375 21.621094 52.902344 21.316406 C 52.445312 21.011719 52.023438 20.664062 51.632812 20.277344 C 51.246094 19.886719 50.898438 19.464844 50.59375 19.007812 C 50.289062 18.550781 50.03125 18.066406 49.820312 17.558594 C 49.609375 17.050781 49.449219 16.527344 49.34375 15.988281 C 49.234375 15.449219 49.183594 14.902344 49.183594 14.355469 C 49.183594 13.804688 49.234375 13.257812 49.34375 12.71875 C 49.449219 12.179688 49.609375 11.65625 49.820312 11.148438 C 50.03125 10.640625 50.289062 10.15625 50.59375 9.699219 C 50.898438 9.242188 51.246094 8.820312 51.632812 8.429688 C 52.023438 8.042969 52.445312 7.695312 52.902344 7.390625 C 53.359375 7.085938 53.84375 6.828125 54.351562 6.617188 C 54.859375 6.40625 55.382812 6.246094 55.921875 6.140625 C 56.460938 6.03125 57.007812 5.980469 57.558594 5.980469 C 58.105469 5.980469 58.652344 6.03125 59.191406 6.140625 C 59.730469 6.246094 60.253906 6.40625 60.761719 6.617188 C 61.269531 6.828125 61.753906 7.085938 62.210938 7.390625 C 62.667969 7.695312 63.089844 8.042969 63.480469 8.429688 C 63.867188 8.820312 64.214844 9.242188 64.519531 9.699219 C 64.824219 10.15625 65.085938 10.640625 65.292969 11.148438 C 65.503906 11.65625 65.664062 12.179688 65.769531 12.71875 C 65.878906 13.257812 65.933594 13.804688 65.933594 14.355469 Z M 65.933594 14.355469 " fill-opacity="1" fill-rule="nonzero"/></g><path fill="#151f28" d="M 56.972656 14.878906 C 55.589844 13.554688 55.804688 12.933594 55.804688 12.933594 C 56.367188 12.386719 56.289062 11.664062 56.289062 11.664062 C 56 11.277344 55.707031 10.886719 55.414062 10.496094 C 55.414062 10.496094 55.023438 9.855469 54.421875 10.203125 C 52.804688 11.160156 53.3125 12.796875 53.3125 12.796875 C 53.3125 12.816406 53.757812 14.199219 55.804688 16.105469 C 57.847656 18.035156 59.328125 18.542969 59.328125 18.542969 C 59.328125 18.542969 61.003906 19.085938 61.804688 17.546875 C 62.09375 16.964844 61.433594 16.515625 61.433594 16.515625 C 61.023438 16.183594 60.613281 15.871094 60.207031 15.5625 C 60.207031 15.5625 59.464844 15.445312 58.960938 16.007812 C 58.960938 16.027344 58.335938 16.203125 56.972656 14.878906 Z M 56.972656 14.878906 " fill-opacity="1" fill-rule="nonzero"/><g fill="#000000" fill-opacity="1"><g transform="translate(17.892089, 16.96115)"><g><path d="M 3.453125 -2.015625 L 3.6875 -1.90625 C 3.382812 -1.375 3.070312 -0.925781 2.75 -0.5625 C 2.425781 -0.195312 2.117188 0.0625 1.828125 0.21875 C 1.546875 0.382812 1.28125 0.445312 1.03125 0.40625 C 0.789062 0.375 0.585938 0.238281 0.421875 0 C 0.253906 -0.226562 0.132812 -0.582031 0.0625 -1.0625 C -0.0078125 -1.539062 -0.015625 -2.113281 0.046875 -2.78125 C 0.0976562 -3.445312 0.203125 -4.019531 0.359375 -4.5 C 0.515625 -4.988281 0.6875 -5.347656 0.875 -5.578125 C 1.0625 -5.816406 1.257812 -5.992188 1.46875 -6.109375 C 1.6875 -6.222656 1.878906 -6.273438 2.046875 -6.265625 C 2.210938 -6.265625 2.351562 -6.226562 2.46875 -6.15625 C 2.945312 -5.851562 3.046875 -5.050781 2.765625 -3.75 L 2.53125 -3.9375 C 2.53125 -3.96875 2.53125 -4.007812 2.53125 -4.0625 C 2.539062 -4.113281 2.550781 -4.203125 2.5625 -4.328125 C 2.570312 -4.460938 2.570312 -4.578125 2.5625 -4.671875 C 2.550781 -4.773438 2.519531 -4.867188 2.46875 -4.953125 C 2.425781 -5.046875 2.363281 -5.09375 2.28125 -5.09375 C 2.238281 -5.101562 2.195312 -5.101562 2.15625 -5.09375 C 2.125 -5.09375 2.066406 -5.054688 1.984375 -4.984375 C 1.910156 -4.910156 1.84375 -4.800781 1.78125 -4.65625 C 1.71875 -4.519531 1.648438 -4.296875 1.578125 -3.984375 C 1.515625 -3.679688 1.46875 -3.316406 1.4375 -2.890625 C 1.375 -2.210938 1.367188 -1.695312 1.421875 -1.34375 C 1.484375 -0.988281 1.578125 -0.75 1.703125 -0.625 C 1.828125 -0.507812 1.984375 -0.503906 2.171875 -0.609375 C 2.367188 -0.710938 2.570312 -0.882812 2.78125 -1.125 C 3 -1.363281 3.222656 -1.660156 3.453125 -2.015625 Z M 3.453125 -2.015625 "/></g></g></g><g fill="#000000" fill-opacity="1"><g transform="translate(21.143641, 16.96115)"><g><path d="M 4.75 -2.71875 L 5.015625 -2.71875 C 4.992188 -2.632812 4.960938 -2.53125 4.921875 -2.40625 C 4.878906 -2.28125 4.78125 -2.054688 4.625 -1.734375 C 4.46875 -1.421875 4.300781 -1.140625 4.125 -0.890625 C 3.945312 -0.640625 3.707031 -0.414062 3.40625 -0.21875 C 3.113281 -0.0195312 2.8125 0.078125 2.5 0.078125 C 2.289062 0.078125 2.128906 0.00390625 2.015625 -0.140625 C 1.898438 -0.285156 1.832031 -0.457031 1.8125 -0.65625 C 1.789062 -0.863281 1.785156 -1.117188 1.796875 -1.421875 C 1.410156 -1.046875 1 -0.894531 0.5625 -0.96875 C 0.289062 -1.019531 0.113281 -1.15625 0.03125 -1.375 C -0.0390625 -1.59375 -0.0195312 -1.832031 0.09375 -2.09375 C 0.207031 -2.351562 0.382812 -2.554688 0.625 -2.703125 C 1.019531 -2.953125 1.46875 -3.035156 1.96875 -2.953125 C 1.988281 -3.203125 1.984375 -3.382812 1.953125 -3.5 C 1.972656 -3.507812 2 -3.515625 2.03125 -3.515625 C 2.0625 -3.523438 2.125 -3.53125 2.21875 -3.53125 C 2.320312 -3.53125 2.414062 -3.523438 2.5 -3.515625 C 2.59375 -3.503906 2.691406 -3.476562 2.796875 -3.4375 C 2.898438 -3.394531 2.984375 -3.332031 3.046875 -3.25 C 3.117188 -3.175781 3.175781 -3.070312 3.21875 -2.9375 C 3.257812 -2.800781 3.273438 -2.632812 3.265625 -2.4375 C 3.179688 -1.28125 3.242188 -0.703125 3.453125 -0.703125 C 3.535156 -0.691406 3.640625 -0.757812 3.765625 -0.90625 C 3.984375 -1.15625 4.175781 -1.429688 4.34375 -1.734375 C 4.507812 -2.035156 4.617188 -2.273438 4.671875 -2.453125 Z M 0.890625 -1.890625 C 0.878906 -1.609375 1 -1.507812 1.25 -1.59375 C 1.445312 -1.664062 1.65625 -1.816406 1.875 -2.046875 C 1.894531 -2.253906 1.910156 -2.410156 1.921875 -2.515625 C 1.835938 -2.515625 1.75 -2.507812 1.65625 -2.5 C 1.5625 -2.488281 1.453125 -2.460938 1.328125 -2.421875 C 1.203125 -2.390625 1.097656 -2.328125 1.015625 -2.234375 C 0.941406 -2.140625 0.898438 -2.023438 0.890625 -1.890625 Z M 0.890625 -1.890625 "/></g></g></g><g fill="#000000" fill-opacity="1"><g transform="translate(25.46237, 16.96115)"><g><path d="M 1.015625 -0.0625 C 0.929688 -0.03125 0.835938 -0.015625 0.734375 -0.015625 C 0.710938 -0.00390625 0.6875 0 0.65625 0 L 0.640625 0 C 0.140625 -0.0078125 -0.0625 -1.222656 0.03125 -3.640625 C 0.0507812 -4.128906 0.09375 -4.757812 0.15625 -5.53125 C 0.207031 -6.070312 0.257812 -6.398438 0.3125 -6.515625 C 0.382812 -6.640625 0.488281 -6.703125 0.625 -6.703125 C 0.8125 -6.703125 1 -6.632812 1.1875 -6.5 C 1.351562 -6.394531 1.503906 -6.238281 1.640625 -6.03125 C 1.785156 -5.78125 1.878906 -5.488281 1.921875 -5.15625 C 2.015625 -4.539062 1.941406 -4.015625 1.703125 -3.578125 C 1.609375 -3.390625 1.488281 -3.226562 1.34375 -3.09375 C 1.3125 -2.46875 1.300781 -1.921875 1.3125 -1.453125 C 1.332031 -1.179688 1.363281 -1.023438 1.40625 -0.984375 C 1.457031 -0.941406 1.566406 -0.972656 1.734375 -1.078125 C 1.953125 -1.222656 2.160156 -1.410156 2.359375 -1.640625 C 2.566406 -1.867188 2.71875 -2.0625 2.8125 -2.21875 L 2.953125 -2.453125 L 3.171875 -2.359375 C 3.160156 -2.304688 3.085938 -2.179688 2.953125 -1.984375 C 2.828125 -1.785156 2.664062 -1.554688 2.46875 -1.296875 C 2.28125 -1.046875 2.050781 -0.800781 1.78125 -0.5625 C 1.507812 -0.320312 1.253906 -0.15625 1.015625 -0.0625 Z M 1.359375 -3.484375 C 1.546875 -3.742188 1.660156 -4.039062 1.703125 -4.375 L 1.703125 -4.421875 C 1.703125 -4.453125 1.703125 -4.484375 1.703125 -4.515625 C 1.710938 -4.546875 1.710938 -4.585938 1.703125 -4.640625 C 1.703125 -4.691406 1.695312 -4.742188 1.6875 -4.796875 C 1.6875 -4.847656 1.679688 -4.90625 1.671875 -4.96875 C 1.660156 -5.03125 1.648438 -5.085938 1.640625 -5.140625 C 1.628906 -5.203125 1.609375 -5.257812 1.578125 -5.3125 C 1.546875 -5.375 1.515625 -5.429688 1.484375 -5.484375 C 1.429688 -4.742188 1.390625 -4.078125 1.359375 -3.484375 Z M 1.359375 -3.484375 "/></g></g></g><g fill="#000000" fill-opacity="1"><g transform="translate(27.871855, 16.96115)"><g><path d="M 1.015625 -0.0625 C 0.929688 -0.03125 0.835938 -0.015625 0.734375 -0.015625 C 0.710938 -0.00390625 0.6875 0 0.65625 0 L 0.640625 0 C 0.140625 -0.0078125 -0.0625 -1.222656 0.03125 -3.640625 C 0.0507812 -4.128906 0.09375 -4.757812 0.15625 -5.53125 C 0.207031 -6.070312 0.257812 -6.398438 0.3125 -6.515625 C 0.382812 -6.640625 0.488281 -6.703125 0.625 -6.703125 C 0.8125 -6.703125 1 -6.632812 1.1875 -6.5 C 1.351562 -6.394531 1.503906 -6.238281 1.640625 -6.03125 C 1.785156 -5.78125 1.878906 -5.488281 1.921875 -5.15625 C 2.015625 -4.539062 1.941406 -4.015625 1.703125 -3.578125 C 1.609375 -3.390625 1.488281 -3.226562 1.34375 -3.09375 C 1.3125 -2.46875 1.300781 -1.921875 1.3125 -1.453125 C 1.332031 -1.179688 1.363281 -1.023438 1.40625 -0.984375 C 1.457031 -0.941406 1.566406 -0.972656 1.734375 -1.078125 C 1.953125 -1.222656 2.160156 -1.410156 2.359375 -1.640625 C 2.566406 -1.867188 2.71875 -2.0625 2.8125 -2.21875 L 2.953125 -2.453125 L 3.171875 -2.359375 C 3.160156 -2.304688 3.085938 -2.179688 2.953125 -1.984375 C 2.828125 -1.785156 2.664062 -1.554688 2.46875 -1.296875 C 2.28125 -1.046875 2.050781 -0.800781 1.78125 -0.5625 C 1.507812 -0.320312 1.253906 -0.15625 1.015625 -0.0625 Z M 1.359375 -3.484375 C 1.546875 -3.742188 1.660156 -4.039062 1.703125 -4.375 L 1.703125 -4.421875 C 1.703125 -4.453125 1.703125 -4.484375 1.703125 -4.515625 C 1.710938 -4.546875 1.710938 -4.585938 1.703125 -4.640625 C 1.703125 -4.691406 1.695312 -4.742188 1.6875 -4.796875 C 1.6875 -4.847656 1.679688 -4.90625 1.671875 -4.96875 C 1.660156 -5.03125 1.648438 -5.085938 1.640625 -5.140625 C 1.628906 -5.203125 1.609375 -5.257812 1.578125 -5.3125 C 1.546875 -5.375 1.515625 -5.429688 1.484375 -5.484375 C 1.429688 -4.742188 1.390625 -4.078125 1.359375 -3.484375 Z M 1.359375 -3.484375 "/></g></g></g><g fill="#000000" fill-opacity="1"><g transform="translate(30.28134, 16.96115)"><g/></g></g><g fill="#000000" fill-opacity="1"><g transform="translate(32.782533, 16.96115)"><g><path d="M 4.890625 -4.640625 C 4.785156 -2.015625 4.851562 -0.640625 5.09375 -0.515625 C 5.050781 -0.390625 4.925781 -0.273438 4.71875 -0.171875 C 4.519531 -0.078125 4.34375 -0.0234375 4.1875 -0.015625 C 4.039062 0.00390625 3.914062 -0.0234375 3.8125 -0.109375 C 3.707031 -0.191406 3.628906 -0.316406 3.578125 -0.484375 C 3.523438 -0.660156 3.484375 -0.84375 3.453125 -1.03125 C 3.421875 -1.226562 3.40625 -1.460938 3.40625 -1.734375 C 3.414062 -2.015625 3.429688 -2.269531 3.453125 -2.5 C 3.472656 -2.738281 3.492188 -3.015625 3.515625 -3.328125 C 3.523438 -3.359375 3.535156 -3.445312 3.546875 -3.59375 C 3.566406 -3.738281 3.578125 -3.847656 3.578125 -3.921875 C 3.585938 -4.003906 3.59375 -4.113281 3.59375 -4.25 C 3.601562 -4.394531 3.601562 -4.507812 3.59375 -4.59375 C 3.59375 -4.6875 3.582031 -4.78125 3.5625 -4.875 C 3.550781 -4.96875 3.523438 -5.035156 3.484375 -5.078125 C 3.441406 -5.117188 3.394531 -5.140625 3.34375 -5.140625 C 3.101562 -5.140625 2.890625 -4.976562 2.703125 -4.65625 C 2.523438 -4.34375 2.382812 -3.945312 2.28125 -3.46875 C 2.1875 -3 2.101562 -2.523438 2.03125 -2.046875 C 1.96875 -1.578125 1.910156 -1.144531 1.859375 -0.75 C 1.804688 -0.351562 1.753906 -0.113281 1.703125 -0.03125 C 1.660156 0.101562 1.535156 0.222656 1.328125 0.328125 C 1.117188 0.429688 0.929688 0.488281 0.765625 0.5 C 0.566406 0.5 0.40625 0.390625 0.28125 0.171875 C 0.15625 -0.046875 0.078125 -0.332031 0.046875 -0.6875 C 0.015625 -1.039062 0 -1.441406 0 -1.890625 C 0 -2.347656 0.0195312 -2.804688 0.0625 -3.265625 C 0.101562 -3.722656 0.132812 -4.160156 0.15625 -4.578125 C 0.1875 -5.003906 0.210938 -5.363281 0.234375 -5.65625 C 0.265625 -5.957031 0.257812 -6.175781 0.21875 -6.3125 C 0.238281 -6.320312 0.265625 -6.328125 0.296875 -6.328125 C 0.335938 -6.335938 0.410156 -6.34375 0.515625 -6.34375 C 0.628906 -6.351562 0.734375 -6.347656 0.828125 -6.328125 C 0.929688 -6.316406 1.039062 -6.285156 1.15625 -6.234375 C 1.269531 -6.191406 1.367188 -6.125 1.453125 -6.03125 C 1.535156 -5.945312 1.597656 -5.828125 1.640625 -5.671875 C 1.691406 -5.515625 1.707031 -5.332031 1.6875 -5.125 C 1.59375 -3.789062 1.535156 -2.644531 1.515625 -1.6875 C 1.660156 -2.445312 1.828125 -3.097656 2.015625 -3.640625 C 2.210938 -4.191406 2.398438 -4.597656 2.578125 -4.859375 C 2.753906 -5.128906 2.945312 -5.332031 3.15625 -5.46875 C 3.375 -5.613281 3.546875 -5.695312 3.671875 -5.71875 C 3.804688 -5.738281 3.945312 -5.738281 4.09375 -5.71875 C 4.101562 -5.71875 4.117188 -5.710938 4.140625 -5.703125 C 4.171875 -5.703125 4.191406 -5.703125 4.203125 -5.703125 L 4.21875 -5.703125 C 4.65625 -5.609375 4.878906 -5.296875 4.890625 -4.765625 Z M 4.890625 -4.640625 "/></g></g></g><g fill="#000000" fill-opacity="1"><g transform="translate(37.784927, 16.96115)"><g><path d="M 4.171875 -2.859375 L 4.265625 -2.6875 C 4.242188 -2.664062 4.207031 -2.640625 4.15625 -2.609375 C 4.144531 -2.597656 4.128906 -2.585938 4.109375 -2.578125 C 4.097656 -2.566406 4.09375 -2.5625 4.09375 -2.5625 L 4.015625 -2.515625 C 4.003906 -2.503906 3.988281 -2.492188 3.96875 -2.484375 C 3.957031 -2.472656 3.941406 -2.460938 3.921875 -2.453125 C 3.910156 -2.453125 3.894531 -2.441406 3.875 -2.421875 C 3.851562 -2.410156 3.835938 -2.398438 3.828125 -2.390625 C 3.765625 -2.367188 3.726562 -2.347656 3.71875 -2.328125 C 3.707031 -2.316406 3.6875 -2.304688 3.65625 -2.296875 C 3.632812 -2.285156 3.617188 -2.273438 3.609375 -2.265625 C 3.597656 -2.265625 3.582031 -2.257812 3.5625 -2.25 C 3.550781 -2.238281 3.546875 -2.234375 3.546875 -2.234375 C 3.523438 -2.222656 3.515625 -2.21875 3.515625 -2.21875 C 3.503906 -2.21875 3.492188 -2.210938 3.484375 -2.203125 C 3.460938 -2.191406 3.4375 -2.179688 3.40625 -2.171875 C 3.382812 -2.160156 3.363281 -2.148438 3.34375 -2.140625 C 3.28125 -2.109375 3.179688 -2.066406 3.046875 -2.015625 C 2.960938 -1.972656 2.863281 -1.9375 2.75 -1.90625 C 2.726562 -1.894531 2.703125 -1.882812 2.671875 -1.875 C 2.640625 -1.875 2.617188 -1.875 2.609375 -1.875 C 2.597656 -1.769531 2.570312 -1.664062 2.53125 -1.5625 C 2.394531 -1.132812 2.160156 -0.800781 1.828125 -0.5625 C 1.492188 -0.332031 1.15625 -0.269531 0.8125 -0.375 C 0.476562 -0.488281 0.238281 -0.734375 0.09375 -1.109375 C -0.0390625 -1.492188 -0.0390625 -1.90625 0.09375 -2.34375 C 0.238281 -2.78125 0.476562 -3.113281 0.8125 -3.34375 C 1.144531 -3.570312 1.476562 -3.632812 1.8125 -3.53125 C 2.039062 -3.457031 2.226562 -3.3125 2.375 -3.09375 C 2.519531 -2.875 2.601562 -2.617188 2.625 -2.328125 L 2.65625 -2.328125 C 2.789062 -2.359375 2.882812 -2.378906 2.9375 -2.390625 C 2.976562 -2.390625 3.070312 -2.414062 3.21875 -2.46875 C 3.25 -2.476562 3.269531 -2.484375 3.28125 -2.484375 C 3.3125 -2.492188 3.332031 -2.5 3.34375 -2.5 C 3.363281 -2.507812 3.375 -2.515625 3.375 -2.515625 C 3.382812 -2.515625 3.390625 -2.515625 3.390625 -2.515625 C 3.398438 -2.523438 3.40625 -2.53125 3.40625 -2.53125 C 3.414062 -2.53125 3.425781 -2.53125 3.4375 -2.53125 C 3.457031 -2.539062 3.46875 -2.546875 3.46875 -2.546875 L 3.59375 -2.609375 C 3.625 -2.617188 3.660156 -2.628906 3.703125 -2.640625 C 3.742188 -2.660156 3.78125 -2.675781 3.8125 -2.6875 C 3.851562 -2.707031 3.878906 -2.722656 3.890625 -2.734375 C 3.898438 -2.734375 3.914062 -2.738281 3.9375 -2.75 C 3.957031 -2.757812 3.96875 -2.765625 3.96875 -2.765625 L 4.046875 -2.796875 Z M 2.0625 -2.6875 C 1.957031 -2.71875 1.835938 -2.6875 1.703125 -2.59375 C 1.722656 -2.5625 1.75 -2.53125 1.78125 -2.5 C 1.820312 -2.457031 1.867188 -2.425781 1.921875 -2.40625 C 1.941406 -2.382812 1.972656 -2.367188 2.015625 -2.359375 C 2.078125 -2.347656 2.113281 -2.34375 2.125 -2.34375 C 2.1875 -2.320312 2.25 -2.3125 2.3125 -2.3125 C 2.28125 -2.519531 2.195312 -2.644531 2.0625 -2.6875 Z M 1.453125 -0.75 C 1.585938 -0.707031 1.734375 -0.765625 1.890625 -0.921875 C 2.046875 -1.078125 2.164062 -1.289062 2.25 -1.5625 C 2.269531 -1.625 2.289062 -1.710938 2.3125 -1.828125 C 2.207031 -1.816406 2.125 -1.8125 2.0625 -1.8125 C 2.050781 -1.8125 2.03125 -1.8125 2 -1.8125 C 1.976562 -1.820312 1.957031 -1.828125 1.9375 -1.828125 C 1.914062 -1.828125 1.898438 -1.832031 1.890625 -1.84375 C 1.847656 -1.851562 1.785156 -1.867188 1.703125 -1.890625 C 1.609375 -1.910156 1.515625 -1.957031 1.421875 -2.03125 C 1.390625 -2.050781 1.367188 -2.066406 1.359375 -2.078125 C 1.335938 -2.054688 1.304688 -1.988281 1.265625 -1.875 C 1.179688 -1.613281 1.15625 -1.367188 1.1875 -1.140625 C 1.226562 -0.921875 1.316406 -0.789062 1.453125 -0.75 Z M 1.453125 -0.75 "/></g></g></g><g fill="#000000" fill-opacity="1"><g transform="translate(41.036479, 16.96115)"><g><path d="M 6.21875 -2.765625 L 6.390625 -2.71875 C 6.378906 -2.695312 6.367188 -2.675781 6.359375 -2.65625 C 6.359375 -2.632812 6.34375 -2.585938 6.3125 -2.515625 C 6.289062 -2.441406 6.257812 -2.378906 6.21875 -2.328125 C 6.175781 -2.273438 6.117188 -2.210938 6.046875 -2.140625 C 5.984375 -2.066406 5.90625 -2.015625 5.8125 -1.984375 C 5.726562 -1.953125 5.625 -1.921875 5.5 -1.890625 C 5.375 -1.867188 5.234375 -1.878906 5.078125 -1.921875 C 5.035156 -1.671875 4.988281 -1.460938 4.9375 -1.296875 C 4.863281 -1.078125 4.78125 -0.894531 4.6875 -0.75 C 4.601562 -0.59375 4.5 -0.453125 4.375 -0.328125 C 4.300781 -0.242188 4.210938 -0.171875 4.109375 -0.109375 C 3.953125 0.00390625 3.765625 0.09375 3.546875 0.15625 C 3.390625 0.1875 3.242188 0.164062 3.109375 0.09375 C 2.984375 0.0195312 2.878906 -0.09375 2.796875 -0.25 C 2.722656 -0.414062 2.660156 -0.585938 2.609375 -0.765625 C 2.554688 -0.941406 2.515625 -1.148438 2.484375 -1.390625 C 2.179688 -0.640625 1.6875 -0.222656 1 -0.140625 C 0.75 -0.0976562 0.550781 -0.164062 0.40625 -0.34375 C 0.269531 -0.53125 0.1875 -0.773438 0.15625 -1.078125 C 0.125 -1.390625 0.101562 -1.707031 0.09375 -2.03125 C 0.09375 -2.351562 0.0859375 -2.671875 0.078125 -2.984375 C 0.078125 -3.296875 0.0507812 -3.515625 0 -3.640625 C 0.0195312 -3.640625 0.046875 -3.644531 0.078125 -3.65625 C 0.109375 -3.664062 0.171875 -3.675781 0.265625 -3.6875 C 0.367188 -3.707031 0.460938 -3.71875 0.546875 -3.71875 C 0.640625 -3.71875 0.738281 -3.703125 0.84375 -3.671875 C 0.957031 -3.640625 1.050781 -3.585938 1.125 -3.515625 C 1.207031 -3.453125 1.273438 -3.351562 1.328125 -3.21875 C 1.390625 -3.09375 1.425781 -2.9375 1.4375 -2.75 C 1.445312 -2.582031 1.457031 -2.351562 1.46875 -2.0625 C 1.488281 -1.414062 1.523438 -1.054688 1.578125 -0.984375 C 1.648438 -0.898438 1.773438 -0.992188 1.953125 -1.265625 C 2.148438 -1.566406 2.300781 -1.875 2.40625 -2.1875 C 2.375 -2.550781 2.351562 -2.769531 2.34375 -2.84375 C 2.375 -2.851562 2.414062 -2.867188 2.46875 -2.890625 C 2.519531 -2.910156 2.613281 -2.929688 2.75 -2.953125 C 2.894531 -2.972656 3.019531 -2.96875 3.125 -2.9375 C 3.238281 -2.914062 3.351562 -2.84375 3.46875 -2.71875 C 3.582031 -2.59375 3.65625 -2.414062 3.6875 -2.1875 C 3.789062 -1.5 3.894531 -1.03125 4 -0.78125 C 4.070312 -0.84375 4.144531 -0.929688 4.21875 -1.046875 C 4.300781 -1.160156 4.378906 -1.304688 4.453125 -1.484375 C 4.523438 -1.671875 4.570312 -1.847656 4.59375 -2.015625 C 4.59375 -2.015625 4.59375 -2.019531 4.59375 -2.03125 C 4.601562 -2.050781 4.609375 -2.066406 4.609375 -2.078125 C 4.472656 -2.140625 4.378906 -2.1875 4.328125 -2.21875 C 4.222656 -2.269531 4.132812 -2.332031 4.0625 -2.40625 C 3.957031 -2.488281 3.882812 -2.582031 3.84375 -2.6875 C 3.820312 -2.75 3.800781 -2.820312 3.78125 -2.90625 C 3.78125 -2.96875 3.789062 -3.039062 3.8125 -3.125 C 3.851562 -3.269531 3.9375 -3.382812 4.0625 -3.46875 C 4.1875 -3.570312 4.328125 -3.613281 4.484375 -3.59375 C 4.566406 -3.59375 4.644531 -3.570312 4.71875 -3.53125 C 4.789062 -3.5 4.859375 -3.445312 4.921875 -3.375 C 4.953125 -3.320312 4.988281 -3.257812 5.03125 -3.1875 C 5.050781 -3.144531 5.070312 -3.078125 5.09375 -2.984375 C 5.101562 -2.921875 5.109375 -2.859375 5.109375 -2.796875 C 5.117188 -2.773438 5.125 -2.738281 5.125 -2.6875 L 5.125 -2.609375 C 5.125 -2.453125 5.113281 -2.300781 5.09375 -2.15625 C 5.113281 -2.144531 5.144531 -2.132812 5.1875 -2.125 C 5.226562 -2.125 5.304688 -2.125 5.421875 -2.125 C 5.535156 -2.132812 5.640625 -2.15625 5.734375 -2.1875 C 5.828125 -2.21875 5.921875 -2.28125 6.015625 -2.375 C 6.109375 -2.476562 6.175781 -2.609375 6.21875 -2.765625 Z M 4.6875 -2.703125 L 4.6875 -2.765625 C 4.6875 -2.828125 4.6875 -2.875 4.6875 -2.90625 C 4.65625 -3.007812 4.628906 -3.082031 4.609375 -3.125 C 4.554688 -3.1875 4.503906 -3.222656 4.453125 -3.234375 C 4.390625 -3.242188 4.320312 -3.222656 4.25 -3.171875 C 4.1875 -3.140625 4.144531 -3.085938 4.125 -3.015625 C 4.101562 -2.953125 4.101562 -2.882812 4.125 -2.8125 C 4.144531 -2.757812 4.191406 -2.691406 4.265625 -2.609375 C 4.347656 -2.535156 4.414062 -2.476562 4.46875 -2.4375 L 4.65625 -2.34375 C 4.65625 -2.34375 4.660156 -2.378906 4.671875 -2.453125 C 4.679688 -2.523438 4.6875 -2.582031 4.6875 -2.625 C 4.6875 -2.632812 4.6875 -2.660156 4.6875 -2.703125 Z M 4.6875 -2.703125 "/></g></g></g></svg>